<?xml version="1.0" standalone="no"?>
<!DOCTYPE svg PUBLIC "-//W3C//DTD SVG 20010904//EN"
 "http://www.w3.org/TR/2001/REC-SVG-20010904/DTD/svg10.dtd">
<svg version="1.0" xmlns="http://www.w3.org/2000/svg"
 width="951.000000pt" height="830.000000pt" viewBox="0 0 951.000000 830.000000"
 preserveAspectRatio="xMidYMid meet">

<g transform="translate(0.000000,830.000000) scale(0.100000,-0.100000)"
fill="#7480ff" stroke="none">
<path d="M4455 8190 c-384 -43 -636 -88 -840 -150 -216 -65 -295 -92 -300
-100 -4 -6 -14 -10 -23 -10 -40 0 -376 -155 -562 -260 -52 -29 -106 -60 -120
-67 -49 -27 -240 -157 -313 -213 -240 -182 -472 -403 -648 -615 -77 -92 -196
-247 -214 -277 -5 -9 -31 -48 -56 -85 -26 -37 -58 -88 -71 -113 -13 -25 -32
-58 -42 -73 -59 -89 -190 -362 -248 -517 -41 -107 -49 -132 -67 -195 -9 -33
-19 -65 -23 -70 -9 -14 -46 -158 -69 -269 -10 -50 -21 -97 -25 -105 -6 -16
-23 -145 -46 -356 -18 -162 -15 -553 5 -700 9 -66 21 -151 26 -190 13 -103 51
-285 66 -325 8 -19 17 -56 21 -82 3 -26 22 -89 41 -140 19 -51 38 -106 42
-123 5 -16 27 -73 50 -125 22 -52 41 -98 41 -102 0 -11 136 -284 171 -343 16
-27 33 -59 38 -71 5 -11 38 -63 73 -114 34 -51 68 -100 73 -109 21 -34 129
-177 155 -206 15 -16 29 -35 31 -42 12 -37 358 -389 489 -496 157 -129 195
-158 265 -207 28 -18 52 -37 55 -40 9 -10 168 -110 227 -142 32 -17 63 -35 69
-40 21 -15 98 -57 194 -104 235 -114 244 -118 490 -201 74 -25 142 -49 151
-53 9 -5 34 -12 55 -15 22 -4 66 -15 99 -25 148 -43 416 -90 660 -115 133 -14
516 -17 665 -6 159 12 413 47 555 77 44 9 99 20 123 25 23 5 50 13 60 18 10 5
46 15 82 21 35 6 76 17 90 25 14 7 41 16 60 20 38 7 72 19 265 95 118 47 250
106 330 147 17 9 73 38 125 66 52 27 111 59 130 71 19 12 42 26 52 31 9 6 49
33 88 60 101 70 107 74 179 127 62 47 91 59 91 37 0 -42 -287 -330 -470 -472
-80 -62 -156 -121 -170 -130 -14 -10 -59 -42 -100 -72 -41 -30 -97 -66 -123
-81 -48 -28 -57 -49 -27 -65 8 -5 56 -27 105 -49 50 -22 107 -49 127 -60 20
-11 43 -20 50 -20 7 0 29 -8 48 -18 19 -10 58 -25 85 -32 28 -8 61 -20 75 -27
14 -7 31 -13 37 -13 7 0 75 -20 150 -44 133 -43 182 -56 362 -97 46 -11 92
-24 102 -29 10 -6 35 -10 56 -10 21 0 63 -7 93 -15 98 -27 353 -68 446 -72
l92 -5 46 44 c64 62 63 84 -18 251 -101 207 -120 253 -165 397 -24 74 -52 158
-62 185 -11 28 -19 66 -19 86 0 20 -7 58 -15 85 -36 120 -44 424 -15 599 40
247 36 228 107 445 24 72 133 302 193 405 16 28 38 68 49 90 12 22 25 47 29
55 17 29 65 134 108 235 54 128 162 457 179 545 4 19 13 62 20 95 88 396 104
973 36 1345 -47 254 -105 494 -131 542 -5 10 -14 34 -19 55 -13 54 -40 130
-67 188 -13 28 -24 55 -24 61 0 10 -61 142 -107 229 -93 180 -105 202 -140
252 -13 17 -23 35 -23 38 0 9 -93 152 -120 185 -11 14 -51 66 -87 115 -136
184 -269 328 -518 557 -77 71 -293 241 -361 283 -17 11 -58 38 -90 59 -105 70
-128 83 -224 137 -165 91 -192 105 -325 164 -71 31 -149 65 -172 76 -24 10
-47 19 -52 19 -5 0 -45 13 -88 29 -286 105 -547 165 -948 217 -143 19 -607 28
-730 14z m535 -1565 c207 -29 297 -46 445 -87 22 -7 45 -15 50 -19 6 -4 28
-10 50 -14 22 -4 49 -13 60 -20 11 -6 43 -20 70 -29 28 -9 93 -39 145 -66 52
-27 113 -58 135 -70 51 -26 75 -41 264 -176 80 -57 254 -221 343 -324 74 -86
188 -237 188 -249 0 -5 9 -20 20 -33 24 -31 160 -291 160 -306 0 -6 11 -35 24
-64 28 -62 56 -146 67 -203 4 -22 17 -76 28 -120 65 -261 68 -539 9 -874 -6
-35 -17 -76 -24 -90 -8 -14 -14 -36 -14 -47 0 -67 -99 -308 -210 -512 -29 -52
-151 -231 -205 -298 -49 -62 -318 -328 -363 -360 -161 -113 -254 -175 -283
-188 -19 -9 -81 -41 -139 -71 -58 -30 -111 -55 -118 -55 -7 0 -34 -11 -60 -23
-26 -13 -68 -30 -95 -37 -26 -7 -50 -17 -53 -21 -3 -5 -16 -9 -30 -9 -13 0
-50 -9 -82 -20 -31 -11 -124 -32 -207 -47 -140 -26 -168 -27 -415 -26 -237 1
-280 4 -405 27 -192 34 -435 103 -512 145 -10 5 -45 20 -78 33 -33 12 -76 32
-95 43 -19 11 -44 26 -55 32 -67 38 -161 97 -165 103 -3 4 -19 14 -36 23 -17
9 -36 23 -43 31 -16 18 -31 21 -31 5 0 -12 100 -113 165 -167 57 -48 221 -167
278 -203 33 -20 47 -35 45 -47 -3 -15 -53 -50 -98 -68 -8 -3 -35 -14 -60 -24
-25 -9 -70 -27 -100 -40 -51 -20 -75 -28 -200 -61 -25 -6 -73 -21 -108 -31
-61 -19 -112 -30 -327 -68 -140 -25 -179 -25 -221 1 -51 31 -54 70 -11 155 60
118 87 179 87 192 0 7 8 34 18 60 65 165 89 409 57 577 -23 125 -71 274 -110
348 -116 217 -213 434 -234 522 -6 22 -19 67 -30 99 -12 33 -21 70 -21 84 0
13 -8 52 -17 86 -15 52 -18 106 -18 366 0 316 2 341 51 525 7 28 20 79 30 115
17 67 21 75 73 196 17 39 31 75 31 81 0 6 6 16 14 22 8 7 17 23 20 36 3 13 29
61 57 107 29 46 61 99 73 118 11 19 24 40 28 45 4 6 33 44 65 85 105 139 265
301 395 400 11 8 37 29 58 45 76 59 84 65 95 65 7 0 20 9 31 21 10 11 32 27
49 35 16 8 48 25 70 38 39 24 79 44 220 111 106 51 442 155 499 155 13 0 57 7
97 15 165 34 442 43 609 20z"/>
</g>
</svg>
